<svg width="12" height="13" viewBox="0 0 12 13" fill="none" xmlns="http://www.w3.org/2000/svg">
<path d="M11.4681 3.64262C11.4415 3.01007 11.3439 2.5752 11.2041 2.19838C11.0599 1.79839 10.838 1.44029 10.5474 1.14259C10.2634 0.840261 9.91952 0.605338 9.54238 0.456535C9.18083 0.310004 8.76815 0.207713 8.16473 0.179824C7.55681 0.149573 7.36382 0.142578 5.82196 0.142578C4.28009 0.142578 4.0871 0.149573 3.48143 0.177462C2.87801 0.205351 2.46317 0.307733 2.10379 0.454174C1.72214 0.605338 1.38052 0.837899 1.09654 1.14259C0.80813 1.44029 0.584113 1.80076 0.442077 2.19611C0.302293 2.5752 0.204714 3.00771 0.178109 3.64026C0.149251 4.27753 0.142578 4.47984 0.142578 6.09614C0.142578 7.71244 0.149251 7.91475 0.175856 8.54966C0.20246 9.18221 0.300127 9.61708 0.43991 9.9939C0.584113 10.3939 0.80813 10.752 1.09654 11.0497C1.38052 11.352 1.72439 11.5869 2.10154 11.7357C2.46317 11.8823 2.87576 11.9846 3.47926 12.0125C4.08485 12.0404 4.27793 12.0473 5.81979 12.0473C7.36165 12.0473 7.55465 12.0404 8.16031 12.0125C8.76373 11.9846 9.17857 11.8823 9.53796 11.7357C10.3012 11.4264 10.9046 10.7939 11.1997 9.9939C11.3394 9.61481 11.437 9.18221 11.4636 8.54966C11.4902 7.91475 11.4969 7.71244 11.4969 6.09614C11.4969 4.47984 11.4947 4.27753 11.4681 3.64262ZM10.4454 8.50315C10.4209 9.08455 10.3278 9.39851 10.2501 9.60781C10.0593 10.1264 9.66665 10.5381 9.1719 10.7381C8.97224 10.8195 8.67057 10.9171 8.11811 10.9427C7.51911 10.9707 7.33947 10.9776 5.82421 10.9776C4.30895 10.9776 4.12705 10.9707 3.53022 10.9427C2.97559 10.9171 2.6761 10.8195 2.47643 10.7381C2.23023 10.6427 2.00612 10.4915 1.82422 10.2939C1.63565 10.1008 1.49145 9.86826 1.40045 9.61017C1.32281 9.40087 1.22965 9.08455 1.20529 8.50551C1.1786 7.87759 1.17202 7.68918 1.17202 6.10077C1.17202 4.51236 1.1786 4.32168 1.20529 3.69613C1.22965 3.11473 1.32281 2.80077 1.40045 2.59146C1.49145 2.33328 1.63565 2.09845 1.82648 1.90768C2.01054 1.71 2.23239 1.55884 2.47868 1.46354C2.67835 1.38215 2.9801 1.28449 3.53247 1.25887C4.13147 1.23098 4.3112 1.22399 5.82638 1.22399C7.34389 1.22399 7.52353 1.23098 8.12036 1.25887C8.67499 1.28449 8.97449 1.38215 9.17416 1.46354C9.42036 1.55884 9.64446 1.71 9.82636 1.90768C10.0149 2.10072 10.1591 2.33328 10.2501 2.59146C10.3278 2.80077 10.4209 3.117 10.4454 3.69613C10.472 4.32404 10.4787 4.51236 10.4787 6.10077C10.4787 7.68918 10.472 7.87523 10.4454 8.50315Z" fill="white"/>
<path d="M5.81994 3.17249C4.19479 3.17249 2.87622 4.48128 2.87622 6.09456C2.87622 7.70785 4.19479 9.01664 5.81994 9.01664C7.44517 9.01664 8.76365 7.70785 8.76365 6.09456C8.76365 4.48128 7.44517 3.17249 5.81994 3.17249ZM5.81994 7.99004C4.76562 7.99004 3.91042 7.14121 3.91042 6.09456C3.91042 5.04791 4.76562 4.19908 5.81994 4.19908C6.87434 4.19908 7.72945 5.04791 7.72945 6.09456C7.72945 7.14121 6.87434 7.99004 5.81994 7.99004Z" fill="white"/>
<path d="M9.60467 2.95599C9.60467 3.31459 9.27517 3.60534 8.86869 3.60534C8.46232 3.60534 8.13281 3.31459 8.13281 2.95599C8.13281 2.59732 8.46232 2.30664 8.86869 2.30664C9.27517 2.30664 9.60467 2.59732 9.60467 2.95599Z" fill="white"/>
</svg>
