<svg width="12" height="12" viewBox="0 0 12 12" fill="none" xmlns="http://www.w3.org/2000/svg">
<path d="M10.604 0.142883H1.0881C0.645165 0.142883 0.286133 0.512476 0.286133 0.96844V10.7642C0.286133 11.2202 0.645165 11.5898 1.0881 11.5898H10.604C11.0469 11.5898 11.406 11.2202 11.406 10.7642V0.96844C11.406 0.512476 11.0469 0.142883 10.604 0.142883V0.142883ZM4.2304 8.79512H2.87631V4.60148H4.2304V8.79512ZM3.5534 4.02884H3.54457C3.09018 4.02884 2.79631 3.70685 2.79631 3.30442C2.79631 2.89291 3.09918 2.57982 3.56239 2.57982C4.0256 2.57982 4.31066 2.89291 4.31948 3.30442C4.31948 3.70685 4.0256 4.02884 3.5534 4.02884ZM9.11297 8.79512H7.75905V6.55163C7.75905 5.9878 7.56299 5.60328 7.07305 5.60328C6.69901 5.60328 6.47622 5.86266 6.37832 6.11304C6.34252 6.20264 6.33378 6.32788 6.33378 6.4532V8.79512H4.97977C4.97977 8.79512 4.9975 4.99492 4.97977 4.60148H6.33378V5.19526C6.51372 4.90951 6.83568 4.50306 7.55408 4.50306C8.44496 4.50306 9.11297 5.10243 9.11297 6.3905V8.79512Z" fill="white"/>
</svg>
