<svg width="13" height="11" viewBox="0 0 13 11" fill="none" xmlns="http://www.w3.org/2000/svg">
<path d="M4.35182 10.4727C8.71604 10.4727 11.1026 6.77374 11.1026 3.56625C11.1026 3.4612 11.1005 3.35657 11.0959 3.25253C11.5592 2.90987 11.9618 2.48226 12.2795 1.99554C11.8544 2.18894 11.3968 2.31896 10.9169 2.37778C11.4068 2.07715 11.7829 1.60179 11.9602 1.03512C11.5018 1.31317 10.9941 1.51518 10.4536 1.62429C10.0207 1.15248 9.40417 0.857422 8.72163 0.857422C7.41142 0.857422 6.34882 1.94446 6.34882 3.28444C6.34882 3.47502 6.36968 3.66024 6.41035 3.83794C4.43839 3.73643 2.6897 2.77059 1.5196 1.30182C1.31591 1.66047 1.19837 2.07722 1.19837 2.52191C1.19837 3.36395 1.61726 4.10753 2.25419 4.54237C1.86493 4.53014 1.4993 4.42082 1.17963 4.23885C1.17928 4.24905 1.17928 4.25896 1.17928 4.26982C1.17928 5.44541 1.99711 6.42696 3.08292 6.64937C2.88348 6.70486 2.67365 6.73475 2.45724 6.73475C2.30462 6.73475 2.15582 6.71941 2.01126 6.69097C2.31332 7.65544 3.18929 8.35727 4.22778 8.37695C3.41567 9.02813 2.39267 9.41601 1.28084 9.41601C1.0896 9.41601 0.900561 9.4048 0.714844 9.38237C1.76493 10.071 3.01184 10.4728 4.35189 10.4728" fill="white"/>
</svg>
