<svg width="155" height="23" viewBox="0 0 155 23" fill="none" xmlns="http://www.w3.org/2000/svg">
<path d="M7.84147 22.336C6.68414 22.336 5.7508 22.1307 5.04147 21.72C4.3508 21.2907 3.8748 20.8333 3.61347 20.348H3.50147V22H0.617469V16.288H3.50147V17.52C3.50147 19.4613 4.84547 20.432 7.53347 20.432C8.9148 20.432 9.93214 20.152 10.5855 19.592C11.2388 19.032 11.5655 18.276 11.5655 17.324C11.5655 16.4653 11.3228 15.8027 10.8375 15.336C10.3708 14.8693 9.5308 14.5053 8.31747 14.244L6.97347 13.936C6.04014 13.7493 5.1908 13.488 4.42547 13.152C3.6788 12.816 3.0348 12.396 2.49347 11.892C1.9708 11.388 1.56014 10.7907 1.26147 10.1C0.981469 9.40933 0.841469 8.59733 0.841469 7.664C0.841469 6.84267 0.990802 6.096 1.28947 5.424C1.58814 4.73333 2.01747 4.14533 2.57747 3.66C3.13747 3.17467 3.8188 2.80133 4.62147 2.54C5.42414 2.26 6.32947 2.12 7.33747 2.12C8.47614 2.12 9.38147 2.32533 10.0535 2.736C10.7441 3.128 11.2108 3.55733 11.4535 4.024H11.5655V2.456H14.4495V8.084H11.5655V6.852C11.5655 5.88133 11.2295 5.172 10.5575 4.724C9.88547 4.25733 8.93347 4.024 7.70147 4.024C6.41347 4.024 5.46147 4.304 4.84547 4.864C4.24814 5.40533 3.94947 6.07733 3.94947 6.88C3.94947 7.776 4.22947 8.45733 4.78947 8.924C5.34947 9.372 6.29214 9.74533 7.61747 10.044L8.87747 10.296C10.7628 10.7253 12.2188 11.4067 13.2455 12.34C14.2908 13.2733 14.8135 14.5987 14.8135 16.316C14.8135 17.1933 14.6548 17.996 14.3375 18.724C14.0201 19.452 13.5535 20.0867 12.9375 20.628C12.3401 21.1693 11.6121 21.5893 10.7535 21.888C9.8948 22.1867 8.92414 22.336 7.84147 22.336ZM21.8194 22.336C20.3074 22.336 19.1874 21.972 18.4594 21.244C17.7314 20.516 17.3674 19.508 17.3674 18.22C17.3674 16.8013 17.8807 15.728 18.9074 15C19.9527 14.272 21.5767 13.908 23.7794 13.908H25.7674V12.144C25.7674 11.0053 25.534 10.1467 25.0674 9.568C24.6007 8.97067 23.8354 8.672 22.7714 8.672C21.95 8.672 21.3154 8.79333 20.8674 9.036V9.148C21.054 9.26 21.2314 9.43733 21.3994 9.68C21.586 9.904 21.6794 10.2213 21.6794 10.632C21.6794 11.1733 21.5114 11.6213 21.1754 11.976C20.858 12.312 20.382 12.48 19.7474 12.48C19.206 12.48 18.758 12.3027 18.4034 11.948C18.0674 11.5933 17.8994 11.1267 17.8994 10.548C17.8994 10.1 18.0207 9.67067 18.2634 9.26C18.5247 8.83067 18.9074 8.45733 19.4114 8.14C19.9154 7.804 20.5314 7.54267 21.2594 7.356C22.006 7.15067 22.8647 7.048 23.8354 7.048C25.702 7.048 27.102 7.47733 28.0354 8.336C28.9687 9.176 29.4354 10.3613 29.4354 11.892V20.348H31.2274V21.748C30.9474 21.9347 30.574 22.0747 30.1074 22.168C29.6407 22.28 29.1647 22.336 28.6794 22.336C27.746 22.336 27.074 22.112 26.6634 21.664C26.2527 21.1973 26.0474 20.6093 26.0474 19.9V19.816H25.9074C25.7767 20.1333 25.6087 20.4413 25.4034 20.74C25.198 21.0387 24.9367 21.3093 24.6194 21.552C24.302 21.776 23.91 21.9627 23.4434 22.112C22.9954 22.2613 22.454 22.336 21.8194 22.336ZM23.2474 20.096C23.994 20.096 24.6007 19.9187 25.0674 19.564C25.534 19.2093 25.7674 18.612 25.7674 17.772V15.42H24.1714C23.0514 15.42 22.2487 15.6253 21.7634 16.036C21.2967 16.428 21.0634 16.9973 21.0634 17.744V18.248C21.0634 18.8827 21.2594 19.3493 21.6514 19.648C22.062 19.9467 22.594 20.096 23.2474 20.096ZM33.1753 20.32H34.9673V9.932L33.1753 9.568V8.168L38.5793 7.048V9.764H38.7193C38.85 9.40933 39.0273 9.07333 39.2513 8.756C39.494 8.42 39.7833 8.13067 40.1193 7.888C40.4553 7.62667 40.8473 7.42133 41.2953 7.272C41.762 7.12267 42.2847 7.048 42.8633 7.048C44.0953 7.048 45.0567 7.28133 45.7473 7.748C46.438 8.21467 46.914 8.91467 47.1753 9.848H47.2873C47.4367 9.49333 47.6327 9.148 47.8753 8.812C48.1367 8.476 48.4447 8.17733 48.7993 7.916C49.1727 7.65467 49.5927 7.44933 50.0593 7.3C50.5447 7.132 51.0953 7.048 51.7113 7.048C53.4287 7.048 54.642 7.50533 55.3513 8.42C56.0793 9.316 56.4433 10.6693 56.4433 12.48V20.32H58.2353V22H51.1513V20.32H52.7753V12.648C52.7753 11.5467 52.5793 10.7533 52.1873 10.268C51.7953 9.764 51.1513 9.512 50.2553 9.512C49.9193 9.512 49.5833 9.55867 49.2473 9.652C48.93 9.74533 48.6407 9.89467 48.3793 10.1C48.1367 10.2867 47.9313 10.5387 47.7633 10.856C47.614 11.1547 47.5393 11.5093 47.5393 11.92V20.32H49.1633V22H42.2473V20.32H43.8713V12.648C43.8713 11.5467 43.6753 10.7533 43.2833 10.268C42.91 9.764 42.2847 9.512 41.4073 9.512C41.0527 9.512 40.7073 9.55867 40.3713 9.652C40.0353 9.74533 39.7367 9.89467 39.4753 10.1C39.2327 10.2867 39.0273 10.5387 38.8593 10.856C38.71 11.1547 38.6353 11.5093 38.6353 11.92V20.32H40.2593V22H33.1753V20.32ZM66.323 22.336C65.3336 22.336 64.5496 22.1493 63.971 21.776C63.3923 21.4027 63.0283 20.9827 62.879 20.516H62.767V22H60.359V17.632H62.767V18.136C62.767 18.8827 63.0003 19.4613 63.467 19.872C63.9336 20.2827 64.6896 20.488 65.735 20.488C67.6016 20.488 68.535 19.8533 68.535 18.584C68.535 18.0613 68.367 17.6507 68.031 17.352C67.695 17.0347 67.1723 16.7827 66.463 16.596L65.063 16.232C63.5136 15.8213 62.3563 15.252 61.591 14.524C60.8443 13.7773 60.471 12.7693 60.471 11.5C60.471 10.0813 60.9376 8.98933 61.871 8.224C62.8043 7.44 64.055 7.048 65.623 7.048C66.575 7.048 67.3216 7.22533 67.863 7.58C68.423 7.916 68.7776 8.31733 68.927 8.784H69.039V7.384H71.447V11.752H69.039V11.08C69.039 10.3707 68.8056 9.82933 68.339 9.456C67.8723 9.08267 67.135 8.896 66.127 8.896C64.5216 8.896 63.719 9.484 63.719 10.66C63.719 11.2013 63.8776 11.64 64.195 11.976C64.531 12.312 65.091 12.5733 65.875 12.76L67.191 13.068C68.7216 13.4413 69.879 13.9733 70.663 14.664C71.447 15.3547 71.839 16.3813 71.839 17.744C71.839 19.1813 71.335 20.3107 70.327 21.132C69.3376 21.9347 68.003 22.336 66.323 22.336ZM78.6743 22.252C77.5729 22.252 76.7796 22.0187 76.2943 21.552C75.8276 21.0853 75.5943 20.3667 75.5943 19.396V9.176H73.6623V7.384H74.2783C74.9316 7.384 75.3983 7.26267 75.6783 7.02C75.9583 6.75867 76.2009 6.376 76.4062 5.872L77.4143 3.436H79.2623V7.384H82.6223V9.176H79.2623V20.264H82.6223V21.692C82.3236 21.8413 81.8103 21.972 81.0823 22.084C80.3543 22.196 79.5516 22.252 78.6743 22.252ZM88.1389 5.06C87.4482 5.06 86.9069 4.864 86.5149 4.472C86.1416 4.08 85.9549 3.56667 85.9549 2.932V2.792C85.9549 2.15733 86.1416 1.644 86.5149 1.252C86.9069 0.859999 87.4482 0.663999 88.1389 0.663999C88.8296 0.663999 89.3616 0.859999 89.7349 1.252C90.1269 1.644 90.3229 2.15733 90.3229 2.792V2.932C90.3229 3.56667 90.1269 4.08 89.7349 4.472C89.3616 4.864 88.8296 5.06 88.1389 5.06ZM84.5269 20.32H86.3189V9.932L84.5269 9.568V8.168L89.9869 7.048V20.32H91.7789V22H84.5269V20.32ZM100.714 22.336C99.5751 22.336 98.5671 22.1493 97.6898 21.776C96.8311 21.384 96.1031 20.852 95.5058 20.18C94.9271 19.4893 94.4791 18.6773 94.1618 17.744C93.8631 16.792 93.7138 15.7653 93.7138 14.664C93.7138 13.4693 93.9004 12.396 94.2738 11.444C94.6471 10.492 95.1604 9.69867 95.8138 9.064C96.4671 8.41067 97.2418 7.916 98.1378 7.58C99.0338 7.22533 100.004 7.048 101.05 7.048C102.711 7.048 103.999 7.39333 104.914 8.084C105.828 8.77467 106.286 9.652 106.286 10.716C106.286 11.388 106.099 11.92 105.726 12.312C105.371 12.704 104.867 12.9 104.214 12.9C103.56 12.9 103.056 12.7227 102.702 12.368C102.366 12.0133 102.198 11.556 102.198 10.996C102.198 10.548 102.31 10.1653 102.534 9.848C102.776 9.53067 103.066 9.29733 103.402 9.148V9.008C103.196 8.91467 102.944 8.84 102.646 8.784C102.366 8.728 101.983 8.7 101.498 8.7C100.322 8.7 99.3884 9.092 98.6978 9.876C98.0071 10.66 97.6618 11.724 97.6618 13.068V15.728C97.6618 17.0533 97.9791 18.08 98.6138 18.808C99.2484 19.536 100.126 19.9 101.246 19.9C102.31 19.9 103.15 19.6573 103.766 19.172C104.4 18.6867 104.876 18.0987 105.194 17.408L106.538 18.248C106.37 18.7147 106.127 19.1907 105.81 19.676C105.511 20.1613 105.119 20.6 104.634 20.992C104.167 21.384 103.607 21.7107 102.954 21.972C102.3 22.2147 101.554 22.336 100.714 22.336ZM108.199 20.32H109.991V3.604L108.199 3.24V1.84L113.659 0.719999V14.86H113.799L115.703 12.676L119.091 9.064H117.327V7.384H123.571V9.064H121.583L118.111 12.564L122.955 20.32H124.299V22H117.411V20.32H118.811L115.647 14.832L113.659 16.932V20.32H115.367V22H108.199V20.32ZM125.289 20.32H127.081V3.604L125.289 3.24V1.84L130.749 0.719999V14.86H130.889L132.793 12.676L136.181 9.064H134.417V7.384H140.661V9.064H138.673L135.201 12.564L140.045 20.32H141.389V22H134.501V20.32H135.901L132.737 14.832L130.749 16.932V20.32H132.457V22H125.289V20.32ZM142.602 20.488L150.302 9.176H145.262V11.752H142.826V7.384H154.67V8.896L146.97 20.236H152.458V17.632H154.894V22H142.602V20.488Z" fill="white"/>
</svg>
