<svg width="149" height="101" viewBox="0 0 149 101" fill="none" xmlns="http://www.w3.org/2000/svg">
<path d="M145.206 15.73C144.409 12.6452 142.786 9.81872 140.501 7.53614C138.216 5.25356 135.35 3.5957 132.192 2.73C120.653 5.81145e-07 74.5 0 74.5 0C74.5 0 28.3467 1.93715e-07 16.8083 2.99C13.6504 3.8557 10.7841 5.51356 8.49903 7.79614C6.21397 10.0787 4.59104 12.9052 3.79417 15.99C1.68248 27.3361 0.649541 38.846 0.708333 50.375C0.633061 61.9908 1.66607 73.5885 3.79417 85.02C4.67268 88.009 6.33197 90.7279 8.61172 92.9141C10.8915 95.1003 13.7146 96.6798 16.8083 97.5C28.3467 100.49 74.5 100.49 74.5 100.49C74.5 100.49 120.653 100.49 132.192 97.5C135.35 96.6343 138.216 94.9764 140.501 92.6938C142.786 90.4113 144.409 87.5848 145.206 84.5C147.301 73.2393 148.334 61.8172 148.292 50.375C148.367 38.7592 147.334 27.1615 145.206 15.73Z" fill="#4368C7"/>
<path d="M59.4062 71.63L97.9792 50.375L59.4062 29.12V71.63Z" fill="white"/>
</svg>
