<svg width="125" height="24" viewBox="0 0 125 24" fill="none" xmlns="http://www.w3.org/2000/svg">
<path d="M18.0733 0.00848389H0.924623C0.802567 0.00910384 0.681831 0.0332973 0.569308 0.0796835C0.456786 0.12607 0.354681 0.193742 0.268822 0.278832C0.182964 0.363922 0.115034 0.464762 0.0689112 0.575602C0.0227888 0.686442 -0.000622778 0.805108 1.2594e-05 0.924822L0.0106293 3.24407C0.00967805 3.36126 0.0328 3.47744 0.0786163 3.58568C0.124433 3.69392 0.192004 3.792 0.277302 3.87407C0.3626 3.95614 0.463876 4.02052 0.57509 4.06338C0.686304 4.10623 0.805179 4.12668 0.924623 4.12349H7.1585V22.8365C7.15978 23.0784 7.2589 23.3098 7.43408 23.4801C7.60926 23.6503 7.84617 23.7453 8.09276 23.7443L11.1059 23.7301C11.228 23.7298 11.3488 23.7058 11.4613 23.6595C11.5739 23.6133 11.6761 23.5457 11.762 23.4607C11.8479 23.3756 11.9158 23.2748 11.9619 23.1639C12.008 23.0531 12.0313 22.9344 12.0306 22.8147V4.12349H18.0714C18.5849 4.12349 19.0124 3.74484 19.0105 3.24407V0.92577C19.0087 0.682701 18.9094 0.450107 18.7339 0.278404C18.5585 0.106701 18.3212 0.00972292 18.0733 0.00848389V0.00848389Z" fill="#333333"/>
<path d="M99.439 2.66755C99.4373 2.142 99.5944 1.62774 99.8905 1.18971C100.187 0.75169 100.608 0.409549 101.103 0.206493C101.597 0.00343663 102.141 -0.0514236 102.667 0.0488403C103.193 0.149104 103.677 0.399992 104.058 0.769826C104.439 1.13966 104.699 1.61185 104.806 2.12677C104.913 2.64168 104.863 3.17622 104.661 3.66289C104.458 4.14955 104.113 4.56652 103.67 4.86112C103.226 5.15572 102.703 5.31475 102.167 5.31812C101.811 5.32024 101.457 5.25331 101.127 5.12118C100.796 4.98904 100.496 4.79428 100.243 4.54807C99.9891 4.30185 99.7876 4.00901 99.6497 3.68632C99.5119 3.36363 99.4402 3.01743 99.439 2.66755Z" fill="#333333"/>
<path d="M100.874 7.34583H103.435C103.694 7.35031 103.941 7.45525 104.122 7.63774C104.303 7.82023 104.403 8.06545 104.4 8.31991V22.7513C104.401 23.0054 104.299 23.2494 104.116 23.4299C103.934 23.6103 103.686 23.7125 103.427 23.714L100.867 23.7254C100.738 23.726 100.611 23.7018 100.492 23.6542C100.373 23.6066 100.265 23.5364 100.174 23.4478C100.083 23.3592 100.011 23.2538 99.9609 23.1377C99.9113 23.0216 99.8855 22.8971 99.885 22.7712V8.31991C99.8853 8.06229 99.9895 7.81525 100.175 7.63274C100.36 7.45022 100.612 7.34708 100.874 7.34583V7.34583Z" fill="#333333"/>
<path d="M49.4454 21.0435C49.4724 20.6876 49.2466 20.4755 49.0748 20.3458C48.5411 19.9056 48.3712 19.3244 48.3664 18.2329V12.6544C48.3481 8.77325 45.7798 6.82698 41.287 6.84686C39.2728 6.85633 37.0143 7.26432 35.1892 8.27722C35.0436 8.34808 34.9212 8.45759 34.8359 8.59331C34.7506 8.72903 34.7058 8.88551 34.7067 9.04494C34.7249 9.19154 34.7649 9.33473 34.8254 9.46998L35.4141 10.7299C35.4742 10.8967 35.5858 11.041 35.7333 11.1428C35.8808 11.2446 36.057 11.2988 36.2374 11.2979C36.3647 11.2978 36.4904 11.2697 36.6051 11.2156V11.2156C37.8207 10.7079 39.1254 10.4372 40.4464 10.4185C42.4375 10.409 43.8804 11.1237 43.8891 12.9867V13.6494C42.777 13.4288 41.6456 13.3163 40.5111 13.3133C36.0279 13.3341 33.3535 15.5095 33.369 18.7242C33.3844 21.9589 36.11 23.8597 39.3259 23.8455C41.1741 23.837 43.2337 23.1961 44.3388 21.5291C44.6284 22.9405 46.1533 23.6117 48.1763 23.7461C48.2118 23.7502 48.2476 23.7525 48.2834 23.7528C48.766 23.7528 49.0777 23.5028 49.1684 22.9595C49.1675 22.9566 49.4367 21.1609 49.4454 21.0435ZM43.9103 17.4719C43.919 19.2941 41.9327 20.3856 40.1665 20.3932C38.9118 20.3988 37.6822 19.864 37.6764 18.4412C37.6697 17.0894 38.769 16.3028 41.1172 16.2924C42.0549 16.2976 42.9896 16.3975 43.9064 16.5905L43.9103 17.4719Z" fill="#333333"/>
<path d="M89.2279 7.01259C87.3188 7.02111 85.4725 7.62033 84.2439 9.05826V1.04976C84.2434 0.822362 84.1511 0.604407 83.9873 0.443524C83.8234 0.282642 83.6013 0.191912 83.3694 0.191162H80.7819C80.5499 0.191911 80.3277 0.282611 80.1637 0.443466C79.9997 0.604322 79.9073 0.822275 79.9065 1.04976V22.8573C79.9065 22.9698 79.9292 23.0811 79.9733 23.1849C80.0173 23.2887 80.0819 23.3829 80.1633 23.4621C80.2447 23.5413 80.3412 23.6039 80.4474 23.6463C80.5536 23.6888 80.6672 23.7102 80.7819 23.7093L82.8492 23.6979C83.3318 23.6979 83.6455 23.306 83.7179 22.8393C83.7487 22.632 83.9273 21.4998 83.9273 21.4998C85.1501 23.2038 87.0833 24.0094 89.2356 23.9999C93.7892 23.9791 96.8361 20.4103 96.813 15.4026C96.7927 11.015 94.3644 6.98987 89.2279 7.01259ZM88.2483 20.1575C85.5217 20.1698 84.2554 17.8922 84.2439 15.4887C84.2323 12.9243 85.6723 10.925 88.2454 10.9137C90.7683 10.9023 92.3086 12.8069 92.3212 15.4821C92.3337 18.2264 90.7297 20.1462 88.2483 20.1575Z" fill="#333333"/>
<path d="M31.6762 21.5982C31.675 21.4093 31.6098 21.2262 31.4909 21.0776L30.3839 19.6065C30.3031 19.4899 30.1945 19.3944 30.0675 19.3284C29.9404 19.2624 29.7989 19.2279 29.6552 19.2279C29.5068 19.2272 29.361 19.2651 29.2324 19.3377C28.3205 19.84 27.295 20.1108 26.2492 20.1253C23.5323 20.1376 21.5836 18.232 21.5701 15.4792C21.5566 12.7264 23.5091 10.8331 26.2356 10.8208C27.2425 10.824 28.2344 11.0598 29.1311 11.509C29.2642 11.574 29.41 11.6102 29.5586 11.6151C29.8916 11.6293 30.1455 11.4731 30.3308 11.1541L31.2766 9.60158C31.3461 9.50121 31.3929 9.38745 31.414 9.26791C31.435 9.14836 31.4298 9.02578 31.3986 8.90838C31.3674 8.79097 31.3111 8.68145 31.2333 8.58714C31.1555 8.49282 31.0581 8.41589 30.9475 8.36149C29.4785 7.48491 27.5695 6.97846 25.6816 6.98698C20.9128 7.00876 17.0175 10.2614 17.0426 15.6098C17.0687 21.2177 21.3703 23.9932 25.7203 23.9733C27.6688 23.957 29.5727 23.399 31.211 22.3641C31.4841 22.1814 31.6771 21.9296 31.6762 21.5982Z" fill="#333333"/>
<path d="M52.0098 23.0267V8.2138C52.01 8.0291 52.085 7.85203 52.2181 7.72142C52.3513 7.59082 52.5318 7.51733 52.7201 7.51708H55.0886C55.258 7.51714 55.4219 7.57661 55.5505 7.68476C55.6792 7.7929 55.7642 7.9426 55.7902 8.10683L56.0238 9.57506C57.1067 8.02447 58.9347 7.18954 60.8853 7.18954C62.8155 7.18954 64.7256 7.98472 65.7361 9.57506C66.901 7.92508 68.9326 7.18954 71.0164 7.18954C75.1115 7.18954 76.8275 9.86378 76.8275 13.8595V23.0248C76.8275 23.2093 76.7528 23.3863 76.6197 23.5168C76.4867 23.6473 76.3063 23.7206 76.1181 23.7206H73.021C72.9278 23.7207 72.8354 23.7028 72.7492 23.6679C72.663 23.633 72.5847 23.5817 72.5188 23.5171C72.4528 23.4525 72.4004 23.3757 72.3647 23.2913C72.329 23.2068 72.3106 23.1162 72.3106 23.0248V14.1104C72.3106 12.2815 71.524 11.1076 69.6854 11.0982C67.6123 11.0783 66.6423 12.5995 66.6423 14.6007V23.0305C66.6423 23.1219 66.624 23.2125 66.5883 23.297C66.5525 23.3814 66.5002 23.4582 66.4342 23.5228C66.3683 23.5874 66.2899 23.6386 66.2038 23.6736C66.1176 23.7085 66.0252 23.7264 65.932 23.7262H62.8918C62.7036 23.7262 62.5232 23.6529 62.3902 23.5225C62.2571 23.392 62.1824 23.215 62.1824 23.0305V14.1104C62.1824 12.3014 61.3958 11.0982 59.5678 11.0982C57.5246 11.0982 56.5238 12.6289 56.5238 14.6007V23.0305C56.5238 23.215 56.449 23.392 56.316 23.5225C56.183 23.6529 56.0025 23.7262 55.8144 23.7262H52.7201C52.6266 23.7262 52.534 23.7081 52.4476 23.6729C52.3612 23.6377 52.2828 23.5862 52.2168 23.5212C52.1508 23.4562 52.0985 23.379 52.063 23.2942C52.0275 23.2093 52.0094 23.1184 52.0098 23.0267V23.0267Z" fill="#333333"/>
<path d="M120.563 14.0915L120.569 14.0858L124.661 10.0626C124.768 9.96078 124.854 9.83881 124.912 9.704C124.97 9.56919 125 9.42428 125 9.27789C125 9.23718 125 9.19648 124.993 9.15577C124.993 9.14725 124.993 9.13873 124.993 9.13021L124.987 9.0914C124.987 9.08004 124.987 9.06868 124.981 9.05827C124.981 9.05102 124.981 9.04374 124.981 9.0365C124.979 9.0266 124.977 9.0168 124.974 9.00715L124.968 8.98632L124.959 8.95603C124.958 8.94958 124.955 8.94326 124.953 8.9371C124.953 8.92669 124.946 8.91533 124.942 8.90491L124.936 8.88882C124.936 8.87651 124.926 8.86421 124.921 8.85285C124.919 8.8493 124.918 8.84582 124.916 8.84244C124.887 8.77775 124.852 8.71593 124.812 8.65784V8.65784L124.782 8.61809C124.772 8.60483 124.762 8.59158 124.75 8.57832C124.726 8.55087 124.702 8.52532 124.676 8.5007L124.669 8.49408L123.46 7.30511L120.581 4.47468C120.424 4.32324 120.226 4.22052 120.01 4.17945C119.794 4.13838 119.571 4.16079 119.368 4.24387C119.166 4.32694 118.993 4.46697 118.871 4.64633C118.749 4.82569 118.684 5.03637 118.684 5.25187V7.31079H115.871C114.08 7.32055 112.339 7.8856 110.895 8.92507C109.452 9.96454 108.381 11.4252 107.836 13.0979C107.29 14.7706 107.298 16.5697 107.858 18.2378C108.419 19.9058 109.503 21.3572 110.955 22.3844C112.407 23.4115 114.154 23.9617 115.944 23.9562C117.735 23.9507 119.478 23.3898 120.924 22.3537C122.369 21.3177 123.444 19.8597 123.994 18.1882C124.543 16.5168 124.54 14.7177 123.984 13.0483L121.761 15.2019C121.371 15.5862 120.874 15.8482 120.333 15.9545C120.269 16.8036 119.954 17.616 119.426 18.292C118.898 18.968 118.181 19.4783 117.361 19.7602C116.542 20.0422 115.657 20.0835 114.814 19.8792C113.972 19.6749 113.208 19.2338 112.617 18.61C112.026 17.9862 111.634 17.2069 111.488 16.3675C111.342 15.5282 111.449 14.6654 111.796 13.8848C112.143 13.1043 112.715 12.44 113.441 11.9735C114.167 11.5069 115.016 11.2583 115.884 11.2582H118.662V13.3162C118.662 13.3219 118.662 13.3266 118.662 13.3314C118.662 13.3361 118.662 13.3531 118.662 13.3645C118.662 13.3758 118.662 13.3796 118.662 13.3872C118.662 13.3948 118.662 13.4052 118.662 13.4147C118.662 13.4219 118.662 13.4292 118.662 13.4364C118.662 13.4478 118.662 13.4582 118.662 13.4686C118.662 13.479 118.662 13.4866 118.662 13.4951L118.668 13.5292C118.668 13.5358 118.668 13.5425 118.668 13.55C118.669 13.559 118.672 13.5678 118.674 13.5765C118.674 13.5835 118.674 13.5904 118.674 13.5974C118.674 13.6078 118.68 13.6191 118.684 13.6296C118.686 13.6366 118.688 13.6436 118.691 13.6504L118.702 13.6854C118.702 13.692 118.707 13.6977 118.709 13.7043C118.713 13.7129 118.717 13.7218 118.72 13.7308C118.723 13.7367 118.725 13.7427 118.727 13.7488L118.742 13.7801L118.751 13.7962L118.768 13.8312L118.778 13.8473L118.792 13.8728C118.792 13.8785 118.799 13.8842 118.803 13.8889C118.809 13.8991 118.815 13.9089 118.822 13.9183L118.831 13.9315C118.838 13.9429 118.846 13.9542 118.855 13.9647L118.866 13.9798L118.885 14.0025L118.896 14.0177L118.92 14.0423C118.923 14.0468 118.926 14.0509 118.93 14.0546L118.959 14.0849L118.973 14.0972L118.994 14.1171L119.008 14.1303L119.032 14.1511L119.048 14.1634L119.079 14.1881L119.096 14.1994L119.118 14.2155L119.136 14.2269L119.161 14.243L119.182 14.2562L119.214 14.2733L119.233 14.2837L119.256 14.295L119.278 14.3054L119.302 14.3159C119.482 14.3939 119.68 14.4235 119.876 14.4016C120.072 14.3796 120.259 14.3069 120.416 14.1909V14.1909C120.458 14.1624 120.497 14.1307 120.533 14.0962L120.563 14.0915Z" fill="#333333"/>
</svg>
